<svg id="Layer_1" data-name="Layer 1" xmlns="http://www.w3.org/2000/svg" viewBox="0 0 512 498.87"><defs><style>.cls-1{fill:#5ecaef;}.cls-2{fill:#141f38;}.cls-3{fill:#ff5f6e;}</style></defs><title>cloud-filled</title><path class="cls-1" d="M377.18,321.64c41.83,0,75.74-36.74,75.74-82.05S419,157.54,377.18,157.54a70.55,70.55,0,0,0-32.52,8C334,104.93,284.8,59.08,225.7,59.08c-47.28,0-88.13,29.4-108.1,72.18-34.19,14.14-58.52,49.91-58.52,91.92,0,54.38,40.69,98.46,90.89,98.46Z"/><path class="cls-2" d="M377.18,328.21H150c-53.73,0-97.45-47.12-97.45-105,0-42.22,24.1-80.84,60.22-97,22.21-45.53,65.28-73.69,113-73.69,58.61,0,109.45,43.13,123.73,103.71A76,76,0,0,1,377.18,151c45.38,0,82.3,39.75,82.3,88.62S422.56,328.21,377.18,328.21ZM225.71,65.64c-43.32,0-82.46,26.21-102.16,68.4a6.58,6.58,0,0,1-3.44,3.29c-32.58,13.47-54.47,48-54.47,85.85,0,50.67,37.83,91.9,84.32,91.9H377.18c38.14,0,69.18-33.87,69.18-75.49s-31-75.49-69.18-75.49a63.74,63.74,0,0,0-29.51,7.3,6.56,6.56,0,0,1-9.48-4.69C327.86,108.15,280.55,65.64,225.71,65.64Z"/><path class="cls-2" d="M256,420.1a6.56,6.56,0,0,1-6.56-6.56v-91.9a6.56,6.56,0,0,1,13.13,0v91.9A6.56,6.56,0,0,1,256,420.1Z"/><path class="cls-2" d="M505.44,420.1H6.56a6.56,6.56,0,1,1,0-13.13H505.44a6.56,6.56,0,1,1,0,13.13Z"/><circle class="cls-3" cx="256" cy="413.54" r="39.38"/><path class="cls-2" d="M256,459.49a45.95,45.95,0,1,1,45.95-45.95A46,46,0,0,1,256,459.49Zm0-78.77a32.82,32.82,0,1,0,32.82,32.82A32.86,32.86,0,0,0,256,380.72Z"/></svg>